<?xml version="1.0" encoding="utf-8"?>
<!-- Generator: Adobe Illustrator 23.0.1, SVG Export Plug-In . SVG Version: 6.00 Build 0)  -->
<svg version="1.1" id="Layer_1" xmlns="http://www.w3.org/2000/svg" xmlns:xlink="http://www.w3.org/1999/xlink" x="0px" y="0px"
	 viewBox="0 0 24 24" style="enable-background:new 0 0 24 24;" xml:space="preserve">
<style type="text/css">
	.st0{fill:#FFFFFF;}
</style>
<path class="st0" d="M17,12.6v-2.3c-1.2-0.4-1.9-0.5-2.3-1.4c-0.4-0.9,0.1-1.5,0.6-2.6l-1.6-1.6c-1.1,0.5-1.7,1-2.6,0.6
	c-0.9-0.4-1-1.1-1.4-2.3H7.4C6.9,4.2,6.8,4.9,5.9,5.3h0C5,5.7,4.4,5.2,3.3,4.7L1.7,6.3c0.5,1.1,1,1.7,0.6,2.6
	c-0.4,0.9-1.1,1-2.3,1.4v2.3c0,0,1.9,0.5,2.3,1.4c0.4,0.9-0.1,1.5-0.6,2.6l1.6,1.6c1.1-0.5,1.7-1,2.6-0.6h0c0.9,0.4,1,1.1,1.4,2.3
	h2.3c0.4-1.2,0.5-1.9,1.4-2h0c0.9-0.7,1.5-0.2,2.6,0.3l1.6-1.6c-0.5-1.1-1-1.7-0.6-2.6C15.1,13.2,15.8,13.1,17,12.6z M8.5,14.3
	c-1.6,0-2.8-1.3-2.8-2.8s1.3-2.8,2.8-2.8s2.8,1.3,2.8,2.8S10.1,14.3,8.5,14.3z M24,18.5v-1.1c-0.5-0.2-0.9-0.3-1.1-0.7
	c-0.2-0.4,0-0.7,0.3-1.2l-0.8-0.8c-0.5,0.2-0.8,0.5-1.2,0.3s-0.5-0.5-0.7-1.1h-1.1c-0.2,0.5-0.3,0.9-0.7,1.1s-0.7,0-1.2-0.3
	l-0.8,0.8c0.2,0.5,0.5,0.8,0.3,1.2c-0.2,0.4-0.5,0.5-1.1,0.7v1.1c0.5,0.2,0.9,0.3,1.1,0.7c0.2,0.4,0,0.7-0.3,1.2l0.8,0.8
	c0.5-0.2,0.8-0.5,1.2-0.3c0.4,0.2,0.5,0.5,0.7,1.1h1.1c0.2-0.5,0.3-0.9,0.7-1.1h0c0.4-0.2,0.7,0,1.2,0.3l0.8-0.8
	c-0.2-0.5-0.5-0.8-0.3-1.2C23.1,18.8,23.5,18.7,24,18.5z M20,19.3c-0.7,0-1.3-0.6-1.3-1.3s0.6-1.3,1.3-1.3s1.3,0.6,1.3,1.3
	S20.7,19.3,20,19.3z"/>
</svg>
