<?xml version="1.0" encoding="UTF-8"?>
<svg xmlns="http://www.w3.org/2000/svg" viewBox="0 0 64 64" width="512" height="512"><g id="mobilephone-hand-smartphone-technology-device"><path d="M57,2H7A5,5,0,0,0,2,7V35a5,5,0,0,0,5,5H33.76l1.74,2.61a2.97,2.97,0,0,1,.5,1.66V46H35a1,1,0,0,0-1,1v8a1,1,0,0,0,1,1h1v5a1,1,0,0,0,1,1H51a1,1,0,0,0,1-1V56h1a1,1,0,0,0,1-1V47a1,1,0,0,0-1-1H52v-.79a2.947,2.947,0,0,1,.5-1.66l.67-.99A5.135,5.135,0,0,0,53.99,40H57a5,5,0,0,0,5-5V7A5,5,0,0,0,57,2ZM50,60H38V56H50Zm2-6H36V48H52Zm0-14.15a3.022,3.022,0,0,1-.5,1.6l-.66.99A4.959,4.959,0,0,0,50,45.21V46H38V44.27a4.959,4.959,0,0,0-.84-2.77L30.29,31.18a2.013,2.013,0,0,1,2.98.32l2.92,4.08A1,1,0,0,0,38,35V17a1,1,0,0,1,2,0V29a1,1,0,0,0,2,0V27a1,1,0,0,1,2,0v2a1,1,0,0,0,2,0V27a1,1,0,0,1,2,0v2a1,1,0,0,0,2,0V27a1,1,0,0,1,2,0ZM51,24a2.974,2.974,0,0,0-2,.78,2.954,2.954,0,0,0-4,0A2.974,2.974,0,0,0,43,24a3,3,0,0,0-1,.18V17a3,3,0,0,0-6,0V31.88l-1.1-1.55a4.01,4.01,0,0,0-6.12-.47l-.49.5a1,1,0,0,0-.11,1.25L29.76,34H9a1,1,0,0,1-1-1V27.83a1.009,1.009,0,0,1,.29-.7l.85-.85A3.033,3.033,0,0,0,10,24.17V17.83a3.04,3.04,0,0,0-.87-2.12l-.83-.83a1.017,1.017,0,0,1-.3-.71V9A1,1,0,0,1,9,8H55a1,1,0,0,1,1,1V33a1,1,0,0,1-1,1H54V27A3.009,3.009,0,0,0,51,24Zm9,11a3.009,3.009,0,0,1-3,3H54V36h1a3.009,3.009,0,0,0,3-3V9a3.009,3.009,0,0,0-3-3H9A3.009,3.009,0,0,0,6,9v5.17a3.04,3.04,0,0,0,.87,2.12l.83.83a1.017,1.017,0,0,1,.3.71v6.34a1.009,1.009,0,0,1-.29.7l-.85.85A3.033,3.033,0,0,0,6,27.83V33a3.009,3.009,0,0,0,3,3H31.1l1.33,2H7a3.009,3.009,0,0,1-3-3V7A3.009,3.009,0,0,1,7,4H57a3.009,3.009,0,0,1,3,3Z"/><path d="M5,20v2a1,1,0,0,0,2,0V20a1,1,0,0,0-2,0Z"/><path d="M49,12h3v3a1,1,0,0,0,2,0V11a1,1,0,0,0-1-1H49a1,1,0,0,0,0,2Z"/><path d="M10,31a1,1,0,0,0,1,1h4a1,1,0,0,0,0-2H12V27a1,1,0,0,0-2,0Z"/><path d="M49,50H48a1,1,0,0,0,0,2h1a1,1,0,0,0,0-2Z"/></g></svg>
